<?xml version="1.0" encoding="UTF-8" standalone="no"?>
<svg xmlns="http://www.w3.org/2000/svg" width="132.85701mm" height="80.306213mm" viewBox="0 0 132.857 80.306213" version="1.1">
  <style type="text/css">
   text {font-weight:bold;text-align:center;text-anchor:middle;font-family:sans-serif;}
   text.type-label {font-size:79.1767px;}
   text.type-sublabel {font-style:italic;font-size: 39.5885px;}
   text.type-baremetal {font-style:italic;font-size: 30.7909px;}
   text.hardware-label {font-size:57.1832px;}
   text.t1-hypervisor {font-size:48.3858px;}
   text.t1-os {font-size:43.9872px;}
   text.t2-hypervisor {font-size:30.7909px;}
   text.t2-os-box {font-size:52.7844px;}
   text.t2-os-cloud {font-size:39.5885px;}
   path {stroke-width:3.7531;stroke:#000000;fill:#ffffff;fill-opacity:1;}
   text.gray {fill:#cccccc;fill-opacity:1;}
   path.gray {stroke:#cccccc;}
  </style>
  <g transform="scale(0.1)">
   <path class="line gray" d="M 405.19634,130.19483 231.91509,235.59934"/>
   <path class="line gray" d="M 86.757498,130.19483 260.03875,235.59934"/>
   <path class="line" d="M 245.97693,121.52958 V 498.60981"/>
   <path d="M 153.90365,229.16169 71.208742,361.40656 c 118.500858,0 246.014978,0 349.536508,0 L 338.05677,229.16169 Z"/>
   <switch><text class="t1-hypervisor" x="244.24042" y="288.94446" id="trsvg28-lmo" systemLanguage="lmo"><tspan id="trsvg1-lmo">IPER</tspan></text><text class="t1-hypervisor" x="244.24042" y="288.94446" id="trsvg28"><tspan id="trsvg1">HYPER</tspan></text></switch>
   <switch><text class="t1-hypervisor" x="244.24042" y="336.2121" id="trsvg29-lmo" systemLanguage="lmo"><tspan id="trsvg2-lmo">VISOR</tspan></text><text class="t1-hypervisor" x="244.24042" y="336.2121" id="trsvg29"><tspan id="trsvg2">VISOR</tspan></text></switch>
   <path d="m 157.77604,416.61259 -88.126719,84.60216 88.126719,84.60223 h 176.39523 l 88.13318,-84.60223 -88.13318,-84.60216 z"/>
   <switch><text class="hardware-label" x="245.69023" y="491.82626" id="trsvg30"><tspan id="trsvg3">HARD</tspan></text></switch>
   <switch><text class="hardware-label" x="245.69023" y="552.29004" id="trsvg31"><tspan id="trsvg4">WARE</tspan></text></switch>
   <path d="m 227.24313,19.503778 a 23.667435,21.805988 0 0 0 -23.61225,21.807465 23.667435,21.805988 0 0 0 1.48316,7.601859 23.667435,32.411247 0 0 0 -1.47,-0.06358 23.667435,32.411247 0 0 0 -23.66499,32.409875 23.667435,32.411247 0 0 0 23.66499,32.409893 23.667435,32.411247 0 0 0 1.15349,-0.0436 23.667435,21.805988 0 0 0 -0.81073,5.65589 23.667435,21.805988 0 0 0 23.67163,21.80747 23.667435,21.805988 0 0 0 18.37166,-8.0601 23.667435,21.805988 0 0 0 18.36507,8.0601 23.667435,21.805988 0 0 0 23.6716,-21.80747 23.667435,21.805988 0 0 0 -0.81072,-5.65589 23.667435,32.411247 0 0 0 1.15347,0.0436 23.667435,32.411247 0 0 0 23.66497,-32.409893 23.667435,32.411247 0 0 0 -23.66497,-32.409875 23.667435,32.411247 0 0 0 -1.46998,0.06358 23.667435,21.805988 0 0 0 1.48316,-7.601859 23.667435,21.805988 0 0 0 -23.61225,-21.807465 23.667435,21.805988 0 0 0 -0.0524,0 23.667435,21.805988 0 0 0 -18.72761,8.486956 23.667435,21.805988 0 0 0 -18.73426,-8.486956 23.667435,21.805988 0 0 0 -0.0524,0 z"/>
   <switch><text class="t1-os" x="246.59378" y="97.909508" id="trsvg32-lmo" systemLanguage="lmo"><tspan id="trsvg5-lmo">SO</tspan></text><text class="t1-os" x="246.59378" y="97.909508" id="trsvg32"><tspan id="trsvg5">OS</tspan></text></switch>
   <path class="gray" d="m 49.095181,19.503778 a 23.667435,21.805988 0 0 0 -23.612248,21.807465 23.667435,21.805988 0 0 0 1.483162,7.601859 23.667435,32.411247 0 0 0 -1.469993,-0.06358 23.667435,32.411247 0 0 0 -23.664992,32.409875 23.667435,32.411247 0 0 0 23.664992,32.409893 23.667435,32.411247 0 0 0 1.153487,-0.0436 23.667435,21.805988 0 0 0 -0.810722,5.65589 23.667435,21.805988 0 0 0 23.671613,21.80747 23.667435,21.805988 0 0 0 18.371676,-8.0601 23.667435,21.805988 0 0 0 18.365069,8.0601 23.667435,21.805988 0 0 0 23.671585,-21.80747 23.667435,21.805988 0 0 0 -0.81072,-5.65589 23.667435,32.411247 0 0 0 1.15348,0.0436 23.667435,32.411247 0 0 0 23.66497,-32.409893 23.667435,32.411247 0 0 0 -23.66497,-32.409875 23.667435,32.411247 0 0 0 -1.46999,0.06358 23.667435,21.805988 0 0 0 1.48316,-7.601859 23.667435,21.805988 0 0 0 -23.612241,-21.807465 23.667435,21.805988 0 0 0 -0.05237,0 23.667435,21.805988 0 0 0 -18.727611,8.486956 23.667435,21.805988 0 0 0 -18.734257,-8.486956 23.667435,21.805988 0 0 0 -0.05237,0 z"/>
   <switch><text class="t1-os gray" x="68.39431" y="96.308311" id="trsvg33-lmo" systemLanguage="lmo"><tspan id="trsvg6-lmo">SO</tspan></text><text class="t1-os gray" x="68.39431" y="96.308311" id="trsvg33"><tspan id="trsvg6">OS</tspan></text></switch>
   <path class="gray" d="m 405.39099,19.503778 a 23.667435,21.805988 0 0 0 -23.61223,21.807465 23.667435,21.805988 0 0 0 1.48316,7.601859 23.667435,32.411247 0 0 0 -1.47,-0.06358 23.667435,32.411247 0 0 0 -23.66499,32.409875 23.667435,32.411247 0 0 0 23.66499,32.409893 23.667435,32.411247 0 0 0 1.15348,-0.0436 23.667435,21.805988 0 0 0 -0.81072,5.65589 23.667435,21.805988 0 0 0 23.67161,21.80747 23.667435,21.805988 0 0 0 18.37168,-8.0601 23.667435,21.805988 0 0 0 18.36507,8.0601 23.667435,21.805988 0 0 0 23.67158,-21.80747 23.667435,21.805988 0 0 0 -0.81072,-5.65589 23.667435,32.411247 0 0 0 1.15349,0.0436 23.667435,32.411247 0 0 0 23.66497,-32.409893 23.667435,32.411247 0 0 0 -23.66497,-32.409875 23.667435,32.411247 0 0 0 -1.46998,0.06358 23.667435,21.805988 0 0 0 1.48316,-7.601859 23.667435,21.805988 0 0 0 -23.61226,-21.807465 23.667435,21.805988 0 0 0 -0.0524,0 23.667435,21.805988 0 0 0 -18.72761,8.486956 23.667435,21.805988 0 0 0 -18.73426,-8.486956 23.667435,21.805988 0 0 0 -0.0524,0 z"/>
   <switch><text class="t1-os gray" x="424.69012" y="96.308311" id="trsvg34-lmo" systemLanguage="lmo"><tspan id="trsvg7-lmo">SO</tspan></text><text class="t1-os gray" x="424.69012" y="96.308311" id="trsvg34"><tspan id="trsvg7">OS</tspan></text></switch>
   <path class="line gray" d="m 755.97318,388.91553 140.84956,84.75335"/>
   <path class="line gray" d="m 1074.8712,392.05488 -89.693,80.72115"/>
   <path class="line" d="m 914.70404,386.56854 25.63091,88.41848"/>
   <path class="gray" d="M 744.52727,281.28133 698.51473,398.21659 H 832.34471 L 878.35722,281.28133 Z"/>
   <switch><text class="t2-os-box gray" x="789.0545" y="358.96326" id="trsvg35-lmo" systemLanguage="lmo"><tspan id="trsvg8-lmo">SO</tspan></text><text class="t2-os-box gray" x="789.0545" y="358.96326" id="trsvg35"><tspan id="trsvg8">OS</tspan></text></switch>
   <path class="line gray" d="M 978.14917,286.30397 707.73446,225.29277"/>
   <path class="line" d="m 945.35987,286.84303 210.39323,-63.3038"/>
   <path class="line gray" d="M 845.33259,59.852145 726.26277,136.38209"/>
   <path class="line gray" d="M 629.8264,59.542944 740.77182,136.78982"/>
   <path class="line gray" d="m 741.76019,53.870567 -8.68543,79.895443"/>
   <path class="gray" d="m 849.98542,1.87655 a 20.70774,11.522536 0 0 0 -20.65928,11.523318 20.70774,11.522536 0 0 0 1.29699,4.016908 20.70774,17.126478 0 0 0 -1.28628,-0.03366 20.70774,17.126478 0 0 0 -20.70567,17.125745 20.70774,17.126478 0 0 0 20.70567,17.125771 20.70774,17.126478 0 0 0 1.00997,-0.02245 20.70774,11.522536 0 0 0 -0.70822,2.988631 20.70774,11.522536 0 0 0 20.71128,11.52332 20.70774,11.522536 0 0 0 16.07438,-4.259052 20.70774,11.522536 0 0 0 16.0683,4.259052 20.70774,11.522536 0 0 0 20.71153,-11.52332 20.70774,11.522536 0 0 0 -0.70824,-2.988631 20.70774,17.126478 0 0 0 1.00997,0.02245 20.70774,17.126478 0 0 0 20.70544,-17.125771 20.70774,17.126478 0 0 0 -20.70544,-17.125745 20.70774,17.126478 0 0 0 -1.28628,0.03366 20.70774,11.522536 0 0 0 1.2985,-4.016908 20.70774,11.522536 0 0 0 -20.65953,-11.523318 20.70774,11.522536 0 0 0 -0.0375,0 20.70774,11.522536 0 0 0 -16.38574,4.4846122 20.70774,11.522536 0 0 0 -16.39146,-4.4846122 20.70774,11.522536 0 0 0 -0.0375,0 z"/>
   <switch><text class="t2-os-cloud gray" x="866.88513" y="48.411064" id="trsvg36-lmo" systemLanguage="lmo"><tspan id="trsvg9-lmo">SO</tspan></text><text class="t2-os-cloud gray" x="866.88513" y="48.411064" id="trsvg36"><tspan id="trsvg9">OS</tspan></text></switch>
   <path class="gray" d="m 724.62206,1.87655 a 20.70774,11.522536 0 0 0 -20.6593,11.523318 20.70774,11.522536 0 0 0 1.29701,4.016908 20.70774,17.126478 0 0 0 -1.28628,-0.03366 20.70774,17.126478 0 0 0 -20.70568,17.125745 20.70774,17.126478 0 0 0 20.70568,17.125771 20.70774,17.126478 0 0 0 1.00996,-0.02245 20.70774,11.522536 0 0 0 -0.70823,2.988631 20.70774,11.522536 0 0 0 20.7113,11.52332 20.70774,11.522536 0 0 0 16.07438,-4.259052 20.70774,11.522536 0 0 0 16.06828,4.259052 20.70774,11.522536 0 0 0 20.71153,-11.52332 20.70774,11.522536 0 0 0 -0.70822,-2.988631 20.70774,17.126478 0 0 0 1.00997,0.02245 20.70774,17.126478 0 0 0 20.70542,-17.125771 20.70774,17.126478 0 0 0 -20.70542,-17.125745 20.70774,17.126478 0 0 0 -1.28628,0.03366 20.70774,11.522536 0 0 0 1.2985,-4.016908 20.70774,11.522536 0 0 0 -20.65955,-11.523318 20.70774,11.522536 0 0 0 -0.0375,0 20.70774,11.522536 0 0 0 -16.38574,4.4846122 20.70774,11.522536 0 0 0 -16.39148,-4.4846122 20.70774,11.522536 0 0 0 -0.0375,0 z"/>
   <switch><text class="t2-os-cloud gray" x="741.52185" y="48.411064" id="trsvg37-lmo" systemLanguage="lmo"><tspan id="trsvg10-lmo">SO</tspan></text><text class="t2-os-cloud gray" x="741.52185" y="48.411064" id="trsvg37"><tspan id="trsvg10">OS</tspan></text></switch>
   <path class="gray" d="m 592.6606,1.87655 a 20.70774,11.522536 0 0 0 -20.65928,11.523318 20.70774,11.522536 0 0 0 1.29699,4.016908 20.70774,17.126478 0 0 0 -1.28628,-0.03366 20.70774,17.126478 0 0 0 -20.70567,17.125745 20.70774,17.126478 0 0 0 20.70567,17.125771 20.70774,17.126478 0 0 0 1.00999,-0.02245 20.70774,11.522536 0 0 0 -0.70824,2.988631 20.70774,11.522536 0 0 0 20.71128,11.52332 20.70774,11.522536 0 0 0 16.0744,-4.259052 20.70774,11.522536 0 0 0 16.06828,4.259052 20.70774,11.522536 0 0 0 20.71153,-11.52332 20.70774,11.522536 0 0 0 -0.70824,-2.988631 20.70774,17.126478 0 0 0 1.00999,0.02245 20.70774,17.126478 0 0 0 20.70542,-17.125771 20.70774,17.126478 0 0 0 -20.70542,-17.125745 20.70774,17.126478 0 0 0 -1.28628,0.03366 20.70774,11.522536 0 0 0 1.29848,-4.016908 20.70774,11.522536 0 0 0 -20.65953,-11.523318 20.70774,11.522536 0 0 0 -0.0375,0 20.70774,11.522536 0 0 0 -16.38572,4.4846122 20.70774,11.522536 0 0 0 -16.39148,-4.4846122 20.70774,11.522536 0 0 0 -0.0374,0 z"/>
   <switch><text class="t2-os-cloud gray" x="609.5603" y="48.411064" id="trsvg38-lmo" systemLanguage="lmo"><tspan id="trsvg11-lmo">SO</tspan></text><text class="t2-os-cloud gray" x="609.5603" y="48.411064" id="trsvg38"><tspan id="trsvg11">OS</tspan></text></switch>
   <path class="gray" d="m 670.02416,128.85401 -54.4421,103.96304 c 78.01485,0 161.96334,0 230.11651,0 L 791.26083,128.85401 Z"/>
   <switch><text class="t2-hypervisor gray" x="729.53522" y="174.80515" id="trsvg39-lmo" systemLanguage="lmo"><tspan id="trsvg12-lmo">IPER</tspan></text><text class="t2-hypervisor gray" x="729.53522" y="174.80515" id="trsvg39"><tspan id="trsvg12">HYPER</tspan></text></switch>
   <switch><text class="t2-hypervisor gray" x="729.53522" y="208.8766" id="trsvg40-lmo" systemLanguage="lmo"><tspan id="trsvg13-lmo">VISOR</tspan></text><text class="t2-hypervisor gray" x="729.53522" y="208.8766" id="trsvg40"><tspan id="trsvg13">VISOR</tspan></text></switch>
   <path class="line gray" d="M 1245.0617,58.832798 1120.2123,134.77687"/>
   <path class="line gray" d="m 1015.6261,58.832798 124.8494,75.944072"/>
   <path class="line" d="M 1130.344,39.726059 V 159.23012"/>
   <path d="m 1113.9081,1.87655 a 20.70774,11.522536 0 0 0 -20.6593,11.523318 20.70774,11.522536 0 0 0 1.297,4.016908 20.70774,17.126478 0 0 0 -1.2863,-0.03366 20.70774,17.126478 0 0 0 -20.7056,17.125745 20.70774,17.126478 0 0 0 20.7056,17.125771 20.70774,17.126478 0 0 0 1.01,-0.02245 20.70774,11.522536 0 0 0 -0.7082,2.988631 20.70774,11.522536 0 0 0 20.7113,11.52332 20.70774,11.522536 0 0 0 16.0744,-4.259052 20.70774,11.522536 0 0 0 16.0682,4.259052 20.70774,11.522536 0 0 0 20.7116,-11.52332 20.70774,11.522536 0 0 0 -0.7083,-2.988631 20.70774,17.126478 0 0 0 1.01,0.02245 20.70774,17.126478 0 0 0 20.7054,-17.125771 20.70774,17.126478 0 0 0 -20.7054,-17.125745 20.70774,17.126478 0 0 0 -1.2863,0.03366 20.70774,11.522536 0 0 0 1.2985,-4.016908 20.70774,11.522536 0 0 0 -20.6595,-11.523318 20.70774,11.522536 0 0 0 -0.037,0 20.70774,11.522536 0 0 0 -16.3857,4.4846122 20.70774,11.522536 0 0 0 -16.3915,-4.4846122 20.70774,11.522536 0 0 0 -0.037,0 z"/>
   <switch><text class="t2-os-cloud" x="1130.8079" y="48.411064" id="trsvg41-lmo" systemLanguage="lmo"><tspan id="trsvg14-lmo">SO</tspan></text><text class="t2-os-cloud" x="1130.8079" y="48.411064" id="trsvg41"><tspan id="trsvg14">OS</tspan></text></switch>
   <path class="gray" d="m 1252.4676,1.87655 a 20.70774,11.522536 0 0 0 -20.6592,11.523318 20.70774,11.522536 0 0 0 1.297,4.016908 20.70774,17.126478 0 0 0 -1.2863,-0.03366 20.70774,17.126478 0 0 0 -20.7057,17.125745 20.70774,17.126478 0 0 0 20.7057,17.125771 20.70774,17.126478 0 0 0 1.01,-0.02245 20.70774,11.522536 0 0 0 -0.7083,2.988631 20.70774,11.522536 0 0 0 20.7113,11.52332 20.70774,11.522536 0 0 0 16.0744,-4.259052 20.70774,11.522536 0 0 0 16.0683,4.259052 20.70774,11.522536 0 0 0 20.7115,-11.52332 20.70774,11.522536 0 0 0 -0.7082,-2.988631 20.70774,17.126478 0 0 0 1.0099,0.02245 20.70774,17.126478 0 0 0 20.7055,-17.125771 20.70774,17.126478 0 0 0 -20.7055,-17.125745 20.70774,17.126478 0 0 0 -1.2862,0.03366 20.70774,11.522536 0 0 0 1.2985,-4.016908 20.70774,11.522536 0 0 0 -20.6596,-11.523318 20.70774,11.522536 0 0 0 -0.037,0 20.70774,11.522536 0 0 0 -16.3858,4.4846122 20.70774,11.522536 0 0 0 -16.3914,-4.4846122 20.70774,11.522536 0 0 0 -0.038,0 z"/>
   <switch><text class="t2-os-cloud gray" x="1269.3673" y="48.411064" id="trsvg42-lmo" systemLanguage="lmo"><tspan id="trsvg15-lmo">SO</tspan></text><text class="t2-os-cloud gray" x="1269.3673" y="48.411064" id="trsvg42"><tspan id="trsvg15">OS</tspan></text></switch>
   <path class="gray" d="m 981.94678,1.87655 a 20.70774,11.522536 0 0 0 -20.65928,11.523318 20.70774,11.522536 0 0 0 1.29701,4.016908 20.70774,17.126478 0 0 0 -1.28628,-0.03366 20.70774,17.126478 0 0 0 -20.70567,17.125745 20.70774,17.126478 0 0 0 20.70567,17.125771 20.70774,17.126478 0 0 0 1.00997,-0.02245 20.70774,11.522536 0 0 0 -0.70824,2.988631 20.70774,11.522536 0 0 0 20.7113,11.52332 20.70774,11.522536 0 0 0 16.07438,-4.259052 20.70774,11.522536 0 0 0 16.06826,4.259052 20.70774,11.522536 0 0 0 20.7115,-11.52332 20.70774,11.522536 0 0 0 -0.7082,-2.988631 20.70774,17.126478 0 0 0 1.01,0.02245 20.70774,17.126478 0 0 0 20.7054,-17.125771 20.70774,17.126478 0 0 0 -20.7054,-17.125745 20.70774,17.126478 0 0 0 -1.2863,0.03366 20.70774,11.522536 0 0 0 1.2985,-4.016908 20.70774,11.522536 0 0 0 -20.6595,-11.523318 20.70774,11.522536 0 0 0 -0.037,0 20.70774,11.522536 0 0 0 -16.3857,4.4846122 20.70774,11.522536 0 0 0 -16.39148,-4.4846122 20.70774,11.522536 0 0 0 -0.0375,0 z"/>
   <switch><text class="t2-os-cloud gray" x="998.8465" y="48.411064" id="trsvg43-lmo" systemLanguage="lmo"><tspan id="trsvg16-lmo">SO</tspan></text><text class="t2-os-cloud gray" x="998.8465" y="48.411064" id="trsvg43"><tspan id="trsvg16">OS</tspan></text></switch>
   <path d="m 1069.7278,128.85401 -54.4421,103.96304 c 78.0149,0 161.9634,0 230.1165,0 l -54.4377,-103.96304 z"/>
   <switch><text class="t2-hypervisor" x="1129.2388" y="174.80515" id="trsvg44-lmo" systemLanguage="lmo"><tspan id="trsvg17-lmo">IPER</tspan></text><text class="t2-hypervisor" x="1129.2388" y="174.80515" id="trsvg44"><tspan id="trsvg17">HYPER</tspan></text></switch>
   <switch><text class="t2-hypervisor" x="1129.2388" y="208.8766" id="trsvg45-lmo" systemLanguage="lmo"><tspan id="trsvg18-lmo">VISOR</tspan></text><text class="t2-hypervisor" x="1129.2388" y="208.8766" id="trsvg45"><tspan id="trsvg18">VISOR</tspan></text></switch>
   <path d="M 896.28284,281.28133 850.27033,398.21659 H 984.1003 l 46.0125,-116.93526 z"/>
   <switch><text class="t2-os-box" x="940.81012" y="358.96326" id="trsvg46-lmo" systemLanguage="lmo"><tspan id="trsvg19-lmo">SO</tspan></text><text class="t2-os-box" x="940.81012" y="358.96326" id="trsvg46"><tspan id="trsvg19">OS</tspan></text></switch>
   <path class="gray" d="m 1048.0385,281.28133 -46.0126,116.93526 h 133.83 l 46.0125,-116.93526 z"/>
   <switch><text class="t2-os-box gray" x="1092.5658" y="358.96326" id="trsvg47-lmo" systemLanguage="lmo"><tspan id="trsvg20-lmo">SO</tspan></text><text class="t2-os-box gray" x="1092.5658" y="358.96326" id="trsvg47"><tspan id="trsvg20">OS</tspan></text></switch>
   <path d="m 844.5549,459.95221 -88.12672,84.60216 88.12672,84.60221 h 176.3953 l 88.1331,-84.60221 -88.1331,-84.60216 z"/>
   <switch><text class="hardware-label" x="932.46912" y="535.16589" id="trsvg48"><tspan id="trsvg21">HARD</tspan></text></switch>
   <switch><text class="hardware-label" x="932.46912" y="595.62964" id="trsvg49"><tspan id="trsvg22">WARE</tspan></text></switch>
   <switch><text class="type-label" x="248.50923" y="698.59119" id="trsvg50-lmo" systemLanguage="lmo"><tspan id="trsvg23-lmo">TIPO 1</tspan></text><text class="type-label" x="248.50923" y="698.59119" id="trsvg50"><tspan id="trsvg23">TYPE 1</tspan></text></switch>
   <switch><text class="type-sublabel" x="248.50923" y="758.71692" id="trsvg51-lmo" systemLanguage="lmo"><tspan id="trsvg24-lmo">nativ</tspan></text><text class="type-sublabel" x="248.50923" y="758.71692" id="trsvg51"><tspan id="trsvg24">native</tspan></text></switch>
   <switch><text class="type-baremetal" x="248.50923" y="799.00275" id="trsvg52-lmo" systemLanguage="lmo"><tspan id="trsvg25-lmo">(in sul computer)</tspan></text><text class="type-baremetal" x="248.50923" y="799.00275" id="trsvg52"><tspan id="trsvg25">(bare metal)</tspan></text></switch>
   <switch><text class="type-label" x="936.00336" y="738.90118" id="trsvg53-lmo" systemLanguage="lmo"><tspan id="trsvg26-lmo">TIPO 2</tspan></text><text class="type-label" x="936.00336" y="738.90118" id="trsvg53"><tspan id="trsvg26">TYPE 2</tspan></text></switch>
   <switch><text class="type-sublabel" x="936.00336" y="797.8783" id="trsvg54-lmo" systemLanguage="lmo"><tspan id="trsvg27-lmo">hostad</tspan></text><text class="type-sublabel" x="936.00336" y="797.8783" id="trsvg54"><tspan id="trsvg27">hosted</tspan></text></switch>
  </g>
</svg>